<svg width="80" height="79" viewBox="0 0 80 79" fill="none" xmlns="http://www.w3.org/2000/svg">
<g clip-path="url(#clip0_43_60)">
<path d="M40 2C60.9761 2 78 18.847 78 39.5C78 60.153 60.9761 77 40 77C19.0239 77 2 60.153 2 39.5C2 18.847 19.0239 2 40 2Z" fill="url(#paint0_linear_43_60)" stroke="#C2A75A" stroke-width="4"/>
<path d="M54.2514 33.2178L37.6562 49.2758C37.1583 49.7575 36.5048 50 35.8512 50C35.1977 50 34.5442 49.7575 34.0463 49.2758L25.7489 41.2468C24.7504 40.281 24.7504 38.7194 25.7489 37.7537C26.747 36.7874 28.3603 36.7874 29.3588 37.7537L35.8512 44.0361L50.6415 29.7247C51.6396 28.7584 53.2529 28.7584 54.2514 29.7247C55.2495 30.6905 55.2495 32.2516 54.2514 33.2178Z" fill="#FAFAFA"/>
</g>
<defs>
<linearGradient id="paint0_linear_43_60" x1="40" y1="0" x2="40" y2="79" gradientUnits="userSpaceOnUse">
<stop stop-color="#B59F88"/>
<stop offset="1" stop-color="#5E4538"/>
</linearGradient>
<clipPath id="clip0_43_60">
<rect width="80" height="79" fill="white"/>
</clipPath>
</defs>
</svg>
