<svg width="80" height="79" viewBox="0 0 80 79" fill="none" xmlns="http://www.w3.org/2000/svg">
<path d="M40 2C60.9761 2 78 18.847 78 39.5C78 60.153 60.9761 77 40 77C19.0239 77 2 60.153 2 39.5C2 18.847 19.0239 2 40 2Z" fill="url(#paint0_linear_43_68)" stroke="#C2A75A" stroke-width="4"/>
<path d="M49.8 35H30.2C27.904 35 26 36.8425 26 39.125V52.875C26 55.1575 27.904 57 30.2 57H49.8C52.124 57 54 55.1575 54 52.875V39.125C54 36.8425 52.124 35 49.8 35ZM41.708 46.275V49.905C41.708 50.785 40.952 51.5 40 51.5C39.048 51.5 38.32 50.785 38.32 49.905V46.275C37.312 45.725 36.64 44.7075 36.64 43.5525C36.64 41.7925 38.152 40.3625 40 40.3625C41.848 40.3625 43.388 41.7925 43.388 43.5525C43.388 44.735 42.688 45.725 41.708 46.275Z" fill="#FCFCFC"/>
<path d="M51 33H47.5625C47.5625 28.82 44.18 25.4375 40 25.4375C35.82 25.4375 32.4375 28.82 32.4375 33H29C29 26.4275 33.4275 22 40 22C46.5725 22 51 26.4275 51 33Z" fill="#FCFCFC"/>
<defs>
<linearGradient id="paint0_linear_43_68" x1="40" y1="0" x2="40" y2="79" gradientUnits="userSpaceOnUse">
<stop stop-color="#B59F88"/>
<stop offset="1" stop-color="#5E4538"/>
</linearGradient>
</defs>
</svg>
