<svg width="80" height="79" viewBox="0 0 80 79" fill="none" xmlns="http://www.w3.org/2000/svg">
<path d="M40 2C60.9761 2 78 18.847 78 39.5C78 60.153 60.9761 77 40 77C19.0239 77 2 60.153 2 39.5C2 18.847 19.0239 2 40 2Z" fill="url(#paint0_linear_43_64)" stroke="#C2A75A" stroke-width="4"/>
<path d="M50.8806 32.3596H51.0307L53.1318 30.3168L51.0307 28.2741L48.7795 30.4627C46.6418 29.0393 44.1584 28.1843 41.5758 27.9822V24.9181H44.5774V22H35.5727V24.9182H38.5742V27.9823C35.9915 28.1843 33.5081 29.0394 31.3704 30.4628L29.1193 28.2741L27.0182 30.3168L29.1194 32.3596C23.4106 38.2019 23.6542 47.4373 29.6634 52.9875C35.6726 58.5377 45.1719 58.3009 50.8807 52.4585C56.3835 46.8269 56.3835 37.9911 50.8806 32.3596ZM40.075 54.1C33.4441 54.1 28.0688 48.8739 28.0688 42.4272C28.0688 35.9805 33.4441 30.7545 40.075 30.7545C46.7059 30.7545 52.0812 35.9806 52.0812 42.4273C52.0812 48.874 46.7058 54.1 40.075 54.1Z" fill="white"/>
<path d="M40.075 32.2139C34.273 32.2139 29.5696 36.7867 29.5696 42.4275C29.5696 48.0683 34.273 52.6412 40.075 52.6412C45.8771 52.6412 50.5804 48.0684 50.5804 42.4276C50.5804 36.7868 45.877 32.2139 40.075 32.2139ZM41.4257 43.5948C40.7212 44.2798 39.5789 44.2798 38.8744 43.5948C38.1698 42.9098 38.1698 41.7993 38.8744 41.1143L46.0781 36.5911L41.4257 43.5948Z" fill="white"/>
<defs>
<linearGradient id="paint0_linear_43_64" x1="40" y1="0" x2="40" y2="79" gradientUnits="userSpaceOnUse">
<stop stop-color="#B59F88"/>
<stop offset="1" stop-color="#5E4538"/>
</linearGradient>
</defs>
</svg>
