<svg width="49" height="49" viewBox="0 0 49 49" fill="none" xmlns="http://www.w3.org/2000/svg">
<circle cx="24.4999" cy="27.9503" r="19.669" fill="white"/>
<path fill-rule="evenodd" clip-rule="evenodd" d="M24.5 0C10.9695 0 0 10.9695 0 24.5C0 38.0305 10.9695 49 24.5 49C38.0305 49 49 38.0305 49 24.5C49 10.9695 38.0305 0 24.5 0ZM35.8561 16.6619C35.4877 20.536 33.8923 29.9369 33.0807 34.2761C32.7372 36.1126 32.0605 36.728 31.4059 36.7883C29.9838 36.9194 28.9033 35.8475 27.5252 34.9441C25.369 33.5305 24.1507 32.651 22.0577 31.272C19.6383 29.6775 21.2069 28.8019 22.585 27.3701C22.9458 26.995 29.2143 21.293 29.3359 20.7762C29.3512 20.7111 29.3655 20.4699 29.222 20.3427C29.0784 20.2154 28.8669 20.2594 28.7148 20.2938C28.4985 20.3427 25.0532 22.6194 18.3807 27.1242C17.4027 27.796 16.5174 28.1224 15.7231 28.1061C14.8483 28.087 13.1659 27.6113 11.915 27.2046C10.3809 26.706 9.16166 26.4418 9.26789 25.5948C9.32244 25.1537 9.93016 24.7029 11.0901 24.2416C18.2324 21.1293 22.9946 19.0784 25.3776 18.0869C32.182 15.2571 33.5956 14.7651 34.5172 14.7488C35.6715 14.7284 35.9501 15.6812 35.8561 16.6619Z" fill="#2AABED"/>
</svg>
