<svg width="49" height="49" viewBox="0 0 49 49" fill="none" xmlns="http://www.w3.org/2000/svg">
<circle cx="24.4999" cy="27.9503" r="19.669" fill="white"/>
<path d="M24.5 0C19.6544 0 14.9175 1.4369 10.8885 4.12899C6.85954 6.82109 3.71931 10.6475 1.86496 15.1243C0.0106156 19.601 -0.474566 24.5272 0.470772 29.2797C1.41611 34.0322 3.74951 38.3977 7.1759 41.8241C10.6023 45.2505 14.9678 47.5839 19.7203 48.5292C24.4728 49.4746 29.399 48.9894 33.8758 47.135C38.3525 45.2807 42.1789 42.1405 44.871 38.1115C47.5631 34.0825 49 29.3456 49 24.5C49 18.0022 46.4188 11.7705 41.8241 7.17588C37.2295 2.58124 30.9978 0 24.5 0ZM38.6209 34.0884C37.9082 34.1886 34.4225 34.0884 34.2415 34.0884C33.3404 34.1002 32.471 33.7561 31.8222 33.1307C31.0872 32.4207 30.4301 31.6412 29.7118 30.9034C29.5002 30.677 29.2702 30.4684 29.0242 30.2798C28.4506 29.8399 27.8827 29.9373 27.6126 30.6166C27.4018 31.3478 27.2546 32.0958 27.1727 32.8523C27.1254 33.5372 26.6911 33.9659 25.9227 34.0132C25.4466 34.0383 24.9705 34.0494 24.5 34.0355C22.7851 34.0261 21.097 33.6091 19.575 32.8189C17.9276 31.9019 16.4923 30.6477 15.3626 29.1383C13.5056 26.7663 12.0217 24.1603 10.6965 21.4737C10.6269 21.3373 9.26825 18.4474 9.23484 18.311C9.11234 17.8572 9.23484 17.4201 9.61069 17.2669C9.85012 17.1751 14.3269 17.2669 14.4021 17.2669C14.7352 17.2647 15.0603 17.3684 15.3306 17.5631C15.6008 17.7577 15.8022 18.0333 15.9055 18.3499C16.7338 20.4686 17.8668 22.4551 19.2687 24.2466C19.4651 24.4853 19.6948 24.6944 19.9508 24.8675C20.3155 25.1181 20.6607 25.0318 20.8111 24.6086C20.9895 24.0253 21.0942 23.4221 21.1229 22.8128C21.148 21.6045 21.1229 20.8111 21.0561 19.6028C21.0115 18.8288 20.7387 18.1523 19.5972 17.9323C19.2464 17.8683 19.2158 17.5788 19.4413 17.2892C19.9118 16.6906 20.555 16.5932 21.276 16.557C22.3507 16.4957 23.4254 16.5375 24.5 16.557H24.7339C25.2016 16.5553 25.6682 16.6029 26.1259 16.699C26.3967 16.7543 26.6425 16.8955 26.8266 17.1017C27.0107 17.3078 27.1233 17.5679 27.1477 17.8432C27.203 18.1481 27.2263 18.4579 27.2173 18.7676C27.1894 20.0844 27.1254 21.4041 27.1115 22.721C27.0985 23.2435 27.1462 23.7657 27.2535 24.2773C27.4066 24.9789 27.8882 25.1543 28.3671 24.6476C28.9877 23.994 29.5565 23.2931 30.0682 22.5511C30.9752 21.1988 31.7226 19.7461 32.2955 18.2219C32.6073 17.4395 32.8523 17.2669 33.6875 17.2669H38.4372C38.7196 17.262 39.0011 17.2995 39.2724 17.3783C39.3684 17.4035 39.4582 17.4483 39.5361 17.5098C39.614 17.5714 39.6783 17.6483 39.7251 17.7359C39.7719 17.8234 39.8001 17.9197 39.808 18.0187C39.8158 18.1176 39.8031 18.2171 39.7708 18.311C39.5369 19.3522 38.9745 20.2403 38.3787 21.0951C37.4126 22.462 36.3936 23.7956 35.4053 25.1459C35.2864 25.3205 35.1776 25.5017 35.0796 25.6888C34.7065 26.3626 34.7343 26.7384 35.2744 27.2952C36.1375 28.1834 37.059 29.013 37.8915 29.9262C38.5021 30.5906 39.0535 31.307 39.5397 32.0672C40.1327 33.0249 39.7568 33.9269 38.6209 34.0884Z" fill="#2787F5"/>
</svg>
