<svg width="51" height="49" viewBox="0 0 51 49" fill="none" xmlns="http://www.w3.org/2000/svg">
<path d="M25.5 49C39.5833 49 51 38.031 51 24.5C51 10.969 39.5833 0 25.5 0C11.4167 0 0 10.969 0 24.5C0 38.031 11.4167 49 25.5 49Z" fill="#29A71A"/>
<path d="M36.7432 13.6977C34.0901 11.1232 30.5669 9.54441 26.8089 9.24599C23.051 8.94757 19.3057 9.9492 16.2487 12.0702C13.1918 14.1912 11.0243 17.292 10.1372 20.8132C9.25022 24.3345 9.70206 28.0443 11.4112 31.2737L9.73346 39.0997C9.71605 39.1776 9.71556 39.2581 9.73201 39.3362C9.74847 39.4143 9.78151 39.4883 9.82909 39.5535C9.89878 39.6526 9.99826 39.7288 10.1142 39.7721C10.2302 39.8154 10.3572 39.8236 10.4782 39.7958L18.4614 37.9777C21.8131 39.5783 25.6471 39.9845 29.2813 39.1241C32.9154 38.2636 36.114 36.1923 38.3078 33.2787C40.5016 30.365 41.5484 26.7981 41.2619 23.2126C40.9754 19.627 39.3742 16.2554 36.7432 13.6977ZM34.254 32.7854C32.4184 34.5441 30.0546 35.7051 27.4958 36.1046C24.9371 36.5042 22.3123 36.1223 19.9914 35.0127L18.8787 34.4837L13.9844 35.5973L13.9989 35.5389L15.0131 30.8059L14.4683 29.773C13.2825 27.5354 12.8642 24.9945 13.2733 22.5145C13.6824 20.0344 14.898 17.7424 16.746 15.9667C19.0679 13.7365 22.2168 12.4836 25.5 12.4836C28.7832 12.4836 31.9321 13.7365 34.254 15.9667C34.2738 15.9885 34.2951 16.009 34.3178 16.028C36.611 18.2639 37.8911 21.2802 37.8792 24.4193C37.8672 27.5584 36.5642 30.5656 34.254 32.7854Z" fill="white"/>
<path d="M33.8193 29.3132C33.2195 30.2209 32.2719 31.3317 31.081 31.6073C28.9946 32.0918 25.7926 31.624 21.8083 28.0548L21.759 28.0131C18.2556 24.8921 17.3458 22.2945 17.566 20.2343C17.6877 19.065 18.7019 18.007 19.5567 17.3166C19.6919 17.2058 19.8521 17.1269 20.0247 17.0862C20.1972 17.0455 20.3773 17.0442 20.5505 17.0824C20.7237 17.1205 20.8852 17.1971 21.0221 17.3059C21.1589 17.4147 21.2674 17.5528 21.3388 17.7091L22.6283 20.4932C22.7121 20.6738 22.7432 20.8728 22.7181 21.069C22.6931 21.2652 22.613 21.4511 22.4863 21.6069L21.8343 22.4198C21.6944 22.5877 21.61 22.7919 21.5919 23.0063C21.5739 23.2206 21.623 23.4352 21.7329 23.6226C22.098 24.2378 22.9731 25.1427 23.9439 25.9807C25.0334 26.9273 26.2418 27.7931 27.0068 28.0882C27.2115 28.1686 27.4365 28.1882 27.6529 28.1445C27.8693 28.1009 28.0672 27.9959 28.2209 27.8432L28.9772 27.111C29.1232 26.9728 29.3046 26.8742 29.5032 26.8252C29.7017 26.7763 29.9102 26.7789 30.1073 26.8326L33.1702 27.6678C33.3392 27.7176 33.4941 27.8039 33.623 27.92C33.7519 28.0361 33.8515 28.179 33.9142 28.3378C33.9768 28.4966 34.0008 28.667 33.9844 28.8361C33.9679 29.0051 33.9115 29.1684 33.8193 29.3132Z" fill="white"/>
</svg>
