<svg width="25" height="24" viewBox="0 0 25 24" fill="none" xmlns="http://www.w3.org/2000/svg">
<path fill-rule="evenodd" clip-rule="evenodd" d="M14.0793 0.518663L15.6671 1.67358C16.1014 1.98944 16.5584 2.15108 17.1001 2.18039L19.0803 2.28743C20.2661 2.3515 21.2292 3.13671 21.5 4.26035L21.9524 6.13682C22.0761 6.65 22.3193 7.05933 22.7149 7.42003L24.1611 8.73897C25.027 9.52869 25.2453 10.7317 24.7096 11.7617L23.8148 13.4816C23.5701 13.952 23.4857 14.4175 23.55 14.9409L23.7854 16.8545C23.9264 18.0004 23.2978 19.0583 22.2061 19.5126L20.3829 20.2713C19.8842 20.4788 19.5116 20.7827 19.2148 21.2238L18.1292 22.8367C17.4792 23.8025 16.2978 24.2203 15.161 23.8865L13.2625 23.3289C12.7433 23.1765 12.2569 23.1765 11.7376 23.3289L9.83906 23.8865C8.70228 24.2203 7.52092 23.8025 6.87092 22.8367L5.78535 21.2238C5.48842 20.7827 5.11581 20.4788 4.61722 20.2713L2.79388 19.5125C1.70221 19.0582 1.07362 18.0003 1.21455 16.8544L1.44997 14.9408C1.51435 14.4174 1.42987 13.9519 1.18518 13.4815L0.290437 11.7615C-0.245294 10.7317 -0.0270116 9.52864 0.838928 8.73887L2.28513 7.41993C2.68065 7.05923 2.92383 6.6499 3.04753 6.13671L3.49992 4.26025C3.77076 3.13666 4.73383 2.35145 5.91962 2.28733L7.89988 2.18029C8.4415 2.15103 8.89858 1.98934 9.33286 1.67348L10.9207 0.518562C11.8714 -0.172871 13.1285 -0.172871 14.0793 0.518663ZM11.4871 12.6609L9.76395 10.9866C9.31733 10.5526 8.59291 10.5526 8.14634 10.9866C7.69973 11.4205 7.69973 12.1244 8.14634 12.5584L10.6808 15.0211C11.1274 15.455 11.8518 15.4551 12.2984 15.0211C13.826 13.5366 15.3363 12.0356 16.8569 10.5443C17.3003 10.1095 17.2989 9.40783 16.8519 8.97598C16.405 8.54402 15.6808 8.54524 15.2369 8.98084L11.4871 12.6609ZM12.4999 3.72293C10.1478 3.72293 8.01827 4.64939 6.47681 6.14724C4.93534 7.64514 3.9819 9.71438 3.9819 12C3.9819 14.2856 4.93534 16.3549 6.47681 17.8527C8.01827 19.3506 10.1478 20.277 12.4999 20.277C14.8521 20.277 16.9816 19.3506 18.5231 17.8527C20.0646 16.3549 21.018 14.2856 21.018 12C21.018 9.71438 20.0646 7.64509 18.5231 6.14724C16.9816 4.64939 14.8521 3.72293 12.4999 3.72293ZM17.9339 6.71979C16.5432 5.36851 14.622 4.53269 12.4999 4.53269C10.3779 4.53269 8.45666 5.36851 7.06603 6.71979C5.6754 8.07108 4.81524 9.93792 4.81524 12C4.81524 14.062 5.6754 15.9289 7.06603 17.2802C8.45666 18.6314 10.3779 19.4673 12.4999 19.4673C14.622 19.4673 16.5432 18.6314 17.9339 17.2802C19.3245 15.9289 20.1846 14.0621 20.1846 12C20.1847 9.93792 19.3245 8.07108 17.9339 6.71979Z" fill="#FEDD93"/>
</svg>
