<svg width="29" height="29" viewBox="0 0 29 29" fill="none" xmlns="http://www.w3.org/2000/svg">
<path fill-rule="evenodd" clip-rule="evenodd" d="M14.5 29C6.50467 29 0 22.4953 0 14.5C0 6.50467 6.50467 0 14.5 0C22.4953 0 29 6.50467 29 14.5C29 22.4953 22.4953 29 14.5 29ZM22.0195 19.5937C22.1983 19.5937 22.3438 19.4483 22.3438 19.2695V10.1664L14.9663 16.0248C14.8298 16.1333 14.6648 16.1875 14.4999 16.1875C14.3351 16.1875 14.1701 16.1332 14.0336 16.0248L6.65618 10.1664V19.2695C6.65618 19.4483 6.80169 19.5937 6.98045 19.5937H22.0195ZM20.889 9.40625L14.5 14.4798L8.11099 9.40625H20.889ZM23.8438 9.73052V19.2696C23.8438 20.2755 23.0254 21.0939 22.0195 21.0939H6.98045C5.97451 21.0939 5.15622 20.2755 5.15622 19.2696V9.73052C5.15622 8.72464 5.97457 7.9063 6.98045 7.9063H22.0195C23.0254 7.90624 23.8438 8.72464 23.8438 9.73052Z" fill="#FEDD93"/>
</svg>
