<svg width="17" height="17" viewBox="0 0 17 17" fill="none" xmlns="http://www.w3.org/2000/svg">
<path fill-rule="evenodd" clip-rule="evenodd" d="M9.50348 0.36029L10.5753 1.16256C10.8684 1.38197 11.1769 1.49425 11.5425 1.51461L12.8792 1.58897C13.6796 1.63347 14.3297 2.17892 14.5125 2.95946L14.8178 4.26295C14.9013 4.61943 15.0655 4.90378 15.3325 5.15434L16.3087 6.07054C16.8932 6.61912 17.0405 7.45482 16.6789 8.17025L16.075 9.36504C15.9098 9.69181 15.8528 10.0151 15.8962 10.3787L16.0551 11.708C16.1503 12.504 15.726 13.2389 14.9891 13.5545L13.7584 14.0815C13.4218 14.2257 13.1703 14.4367 12.9699 14.7431L12.2372 15.8636C11.7984 16.5344 11.001 16.8247 10.2337 16.5928L8.95216 16.2055C8.60169 16.0996 8.27337 16.0996 7.92286 16.2055L6.64134 16.5928C5.87402 16.8247 5.07661 16.5344 4.63786 15.8636L3.9051 14.7431C3.70467 14.4367 3.45317 14.2257 3.11661 14.0815L1.88586 13.5544C1.14899 13.2388 0.724689 12.5039 0.819822 11.708L0.978728 10.3786C1.02218 10.0151 0.965158 9.69174 0.799994 9.36497L0.196044 8.17018C-0.165573 7.45479 -0.0182328 6.61909 0.566275 6.07047L1.54246 5.15427C1.80944 4.90371 1.97358 4.61936 2.05708 4.26288L2.36244 2.95939C2.54525 2.17889 3.19533 1.63344 3.99573 1.5889L5.33241 1.51454C5.698 1.49422 6.00653 1.3819 6.29966 1.16249L7.37143 0.36022C8.01314 -0.120085 8.86174 -0.120085 9.50348 0.36029ZM7.75376 8.79494L6.59065 7.63183C6.28918 7.33037 5.8002 7.33037 5.49877 7.63183C5.1973 7.9333 5.1973 8.42225 5.49877 8.72372L7.20951 10.4344C7.51097 10.7358 7.99996 10.7359 8.30139 10.4344C9.33252 9.40325 10.352 8.36052 11.3784 7.32464C11.6777 7.02258 11.6767 6.53517 11.375 6.23518C11.0733 5.93512 10.5845 5.93597 10.2849 6.23856L7.75376 8.79494ZM8.43744 2.58614C6.84975 2.58614 5.41232 3.22971 4.37183 4.27019C3.33135 5.31071 2.68778 6.74811 2.68778 8.3358C2.68778 9.92349 3.33135 11.3609 4.37183 12.4014C5.41232 13.4419 6.84975 14.0855 8.43744 14.0855C10.0251 14.0855 11.4626 13.4419 12.5031 12.4014C13.5435 11.3609 14.1871 9.92349 14.1871 8.3358C14.1871 6.74811 13.5435 5.31068 12.5031 4.27019C11.4626 3.22971 10.0251 2.58614 8.43744 2.58614ZM12.1053 4.66792C11.1667 3.72924 9.86985 3.14864 8.43744 3.14864C7.00504 3.14864 5.70823 3.72924 4.76956 4.66792C3.83088 5.60659 3.25028 6.9034 3.25028 8.3358C3.25028 9.76821 3.83088 11.065 4.76956 12.0037C5.70823 12.9424 7.00504 13.523 8.43744 13.523C9.86985 13.523 11.1667 12.9424 12.1053 12.0037C13.044 11.0651 13.6246 9.76824 13.6246 8.33584C13.6246 6.9034 13.044 5.60659 12.1053 4.66792Z" fill="white"/>
</svg>
