<?xml version="1.0" encoding="utf-8"?>
<svg viewBox="0 0 33 33" xmlns="http://www.w3.org/2000/svg" xmlns:xlink="http://www.w3.org/1999/xlink"
   style="display: none;">
   <svg fill="none" viewBox="0 0 15 18" id="icon-chevron-right" xmlns="http://www.w3.org/2000/svg">
      <path fill-rule="evenodd" clip-rule="evenodd"
         d="m6.138 17.01 7.312-7.312c.44-.44.44-1.152 0-1.591L6.138.795a1.125 1.125 0 0 0-1.59 1.591l6.516 6.516-6.516 6.516a1.125 1.125 0 0 0 1.59 1.591Z"
         fill="currentColor" />
   </svg>
   <svg fill="none" viewBox="0 0 33 9" id="icon-minus" xmlns="http://www.w3.org/2000/svg">
      <path d="M31.5 0h-30A1.5 1.5 0 0 0 0 1.5v6A1.5 1.5 0 0 0 1.5 9h30A1.5 1.5 0 0 0 33 7.5v-6A1.5 1.5 0 0 0 31.5 0Z"
         fill="currentColor" />
   </svg>
   <svg fill="none" viewBox="0 0 21 19" id="icon-phone" xmlns="http://www.w3.org/2000/svg">
      <path
         d="m19.488 13.944-2.799-2.651c-1-.947-2.698-.569-3.098.662-.3.853-1.3 1.326-2.2 1.137-1.998-.474-4.697-2.936-5.197-4.924-.3-.853.3-1.8 1.2-2.084 1.299-.379 1.699-1.988.7-2.935L5.293.497c-.8-.663-1.999-.663-2.698 0l-1.9 1.8c-1.899 1.893.2 6.912 4.898 11.363 4.698 4.45 9.996 6.534 11.995 4.64l1.899-1.8c.7-.757.7-1.893 0-2.556Z"
         fill="currentColor" />
   </svg>
   <svg fill="none" viewBox="0 0 33 33" id="icon-plus" xmlns="http://www.w3.org/2000/svg">
      <path
         d="M33 13.353v6.294a.858.858 0 0 1-.858.859H20.506v11.636a.858.858 0 0 1-.858.858h-6.295a.859.859 0 0 1-.859-.858V20.506H.858A.858.858 0 0 1 0 19.647v-6.294c0-.474.384-.859.858-.859h11.636V.858c0-.474.385-.858.859-.858h6.295c.473 0 .858.384.858.858v11.636h11.636c.474 0 .858.385.858.859Z"
         fill="currentColor" />
   </svg>
   <svg fill="none" viewBox="0 0 24 20" id="icon-telegram" xmlns="http://www.w3.org/2000/svg">
      <path
         d="M21.964.177C18.798 1.499 5.222 7.169 1.471 8.715c-2.515.99-1.043 1.918-1.043 1.918s2.148.742 3.988 1.3c1.841.556 2.823-.063 2.823-.063l8.65-5.878c3.069-2.103 2.332-.37 1.596.372-1.595 1.608-4.233 4.145-6.442 6.187-.982.866-.491 1.608-.062 1.98 1.596 1.36 5.952 4.145 6.197 4.33 1.297.926 3.846 2.258 4.234-.556l1.534-9.714c.49-3.28.982-6.31 1.043-7.177.184-2.103-2.025-1.237-2.025-1.237Z"
         fill="currentColor" />
   </svg>
   <svg fill="currentColor" viewBox="0 0 16 16" id="icon-close" xmlns="http://www.w3.org/2000/svg">
      <path d="M4.646 4.646a.5.5 0 0 1 .708 0L8 7.293l2.646-2.647a.5.5 0 0 1 .708.708L8.707 8l2.647 2.646a.5.5 0 0 1-.708.708L8 8.707l-2.646 2.647a.5.5 0 0 1-.708-.708L7.293 8 4.646 5.354a.5.5 0 0 1 0-.708"/>
   </svg>
   <svg fill="none" viewBox="0 0 17 17" id="icon-phone-2" xmlns="http://www.w3.org/2000/svg">
      <path d="M3.44497 11.3005C5.12808 13.3048 7.15417 14.8829 9.46668 15.9996C10.3471 16.4153 11.5246 16.9084 12.8364 16.993C12.9178 16.9965 12.9955 17 13.0769 17C13.9573 17 14.6645 16.6971 15.2409 16.0736C15.2444 16.07 15.2515 16.063 15.255 16.0559C15.4601 15.8094 15.6935 15.5874 15.9374 15.3514C16.1036 15.1929 16.2734 15.0274 16.436 14.8583C17.1892 14.0763 17.1892 13.0829 16.4289 12.3255L14.3038 10.2085C13.9432 9.83506 13.5118 9.6378 13.0592 9.6378C12.6066 9.6378 12.1717 9.83506 11.8004 10.2049L10.5345 11.466C10.4178 11.3991 10.2976 11.3392 10.1845 11.2828C10.043 11.2124 9.91221 11.1455 9.79552 11.0715C8.6428 10.3423 7.59617 9.39121 6.5955 8.16888C6.08986 7.53129 5.75041 6.99586 5.5135 6.44986C5.84588 6.15044 6.15704 5.83693 6.45759 5.53046C6.56367 5.42126 6.67329 5.31206 6.7829 5.20286C7.16478 4.82242 7.36987 4.3821 7.36987 3.93473C7.36987 3.48736 7.16832 3.04704 6.7829 2.6666L5.72919 1.61687C5.60543 1.49358 5.48875 1.37381 5.36852 1.25052C5.13515 1.01098 4.89117 0.764401 4.65073 0.542478C4.28653 0.186697 3.85868 0 3.40608 0C2.95701 0 2.52563 0.186697 2.14728 0.546001L0.824842 1.86345C0.343955 2.34252 0.0716873 2.92375 0.0151123 3.59656C-0.0520706 4.43846 0.103511 5.3332 0.506608 6.41463C1.1254 8.08786 2.05889 9.64132 3.44497 11.3005ZM0.877882 3.67053C0.920313 3.20203 1.10065 2.81102 1.4401 2.47286L2.75547 1.16245C2.96055 0.965189 3.18685 0.863034 3.40608 0.863034C3.62177 0.863034 3.841 0.965189 4.04255 1.1695C4.27946 1.3879 4.50222 1.61687 4.74266 1.85993C4.86289 1.98322 4.98664 2.10651 5.1104 2.23332L6.16411 3.28305C6.38334 3.50145 6.49649 3.72337 6.49649 3.94177C6.49649 4.16017 6.38334 4.3821 6.16411 4.6005C6.0545 4.7097 5.94488 4.82242 5.83527 4.93162C5.50643 5.26274 5.1988 5.57625 4.85935 5.87567C4.85228 5.88272 4.84874 5.88624 4.84167 5.89329C4.54819 6.18566 4.59415 6.46395 4.66487 6.6753C4.66841 6.68587 4.67194 6.69291 4.67548 6.70348C4.94775 7.35516 5.32609 7.97513 5.91659 8.71488C6.97738 10.0182 8.09473 11.0292 9.32524 11.8077C9.47729 11.9063 9.63994 11.9838 9.79198 12.0613C9.93342 12.1318 10.0643 12.1987 10.1809 12.2727C10.1951 12.2797 10.2057 12.2868 10.2198 12.2938C10.3365 12.3537 10.4497 12.3819 10.5628 12.3819C10.8457 12.3819 11.0296 12.2022 11.0897 12.1424L12.4121 10.8249C12.6172 10.6206 12.84 10.5114 13.0592 10.5114C13.3279 10.5114 13.5472 10.677 13.6851 10.8249L15.8172 12.9455C16.2415 13.3682 16.238 13.8262 15.8066 14.2735C15.6581 14.432 15.5025 14.5835 15.3363 14.742C15.0888 14.9816 14.8307 15.2281 14.5973 15.5064C14.1907 15.9432 13.7063 16.1475 13.0804 16.1475C13.0203 16.1475 12.9567 16.144 12.8965 16.1405C11.7368 16.0665 10.6583 15.6156 9.84856 15.2317C7.6492 14.1714 5.71858 12.6672 4.1168 10.758C2.7979 9.17634 1.91038 7.7039 1.32341 6.12578C0.959208 5.15707 0.821307 4.37857 0.877882 3.67053Z" fill="currentColor"/>
   </svg>
   <svg fill="none" viewBox="0 0 17 17" id="icon-user" xmlns="http://www.w3.org/2000/svg">
      <path d="M14.5104 10.9896C13.5846 10.0638 12.4827 9.37846 11.2804 8.96358C12.5681 8.07669 13.4141 6.59241 13.4141 4.91406C13.4141 2.20445 11.2096 0 8.5 0C5.79039 0 3.58594 2.20445 3.58594 4.91406C3.58594 6.59241 4.43192 8.07669 5.71964 8.96358C4.51735 9.37846 3.41541 10.0638 2.4896 10.9896C0.884166 12.595 0 14.7296 0 17H1.32812C1.32812 13.0454 4.54541 9.82812 8.5 9.82812C12.4546 9.82812 15.6719 13.0454 15.6719 17H17C17 14.7296 16.1158 12.595 14.5104 10.9896ZM8.5 8.5C6.52272 8.5 4.91406 6.89138 4.91406 4.91406C4.91406 2.93675 6.52272 1.32812 8.5 1.32812C10.4773 1.32812 12.0859 2.93675 12.0859 4.91406C12.0859 6.89138 10.4773 8.5 8.5 8.5Z" fill="currentColor"/>
   </svg>
</svg>