<svg width="45" height="39" viewBox="0 0 45 39" fill="none" xmlns="http://www.w3.org/2000/svg">
<path d="M9.29455 18.5639C11.443 18.5622 13.5244 17.8164 15.1842 16.4538C16.8439 15.0911 17.9794 13.1957 18.3971 11.0906C18.8148 8.9855 18.4889 6.80084 17.4749 4.90882C16.4609 3.01679 14.8216 1.53445 12.8363 0.714324C10.8509 -0.105803 8.64224 -0.212979 6.58663 0.411054C4.53102 1.03509 2.75559 2.35172 1.5628 4.13666C0.370008 5.9216 -0.166347 8.06442 0.0451046 10.2001C0.256556 12.3357 1.20273 14.3321 2.72245 15.849C3.58498 16.7116 4.60957 17.3954 5.7374 17.8613C6.86523 18.3272 8.07408 18.5659 9.29455 18.5639ZM6.69984 6.69231C7.30014 6.09272 8.08999 5.71959 8.93482 5.6365C9.77965 5.55341 10.6272 5.7655 11.333 6.23662C12.0389 6.70775 12.5593 7.40877 12.8057 8.22024C13.0521 9.0317 13.0093 9.90341 12.6844 10.6868C12.3595 11.4703 11.7727 12.1169 11.024 12.5166C10.2754 12.9164 9.41109 13.0444 8.57849 12.879C7.74589 12.7135 6.99647 12.2648 6.45792 11.6094C5.91938 10.9539 5.62503 10.1321 5.62503 9.28414C5.6237 8.80259 5.71801 8.32556 5.90251 7.88067C6.087 7.43578 6.35801 7.03186 6.69984 6.69231ZM35.7056 20.4314C33.5552 20.4314 31.4713 21.1761 29.8091 22.5387C28.1468 23.9014 27.009 25.7976 26.5894 27.9043C26.1699 30.011 26.4946 32.1978 27.5082 34.0922C28.5219 35.9866 30.1618 37.4712 32.1484 38.2932C34.1351 39.1153 36.3456 39.2238 38.4034 38.6002C40.4612 37.9767 42.2389 36.6598 43.4335 34.8738C44.6282 33.0878 45.166 30.9433 44.9552 28.8057C44.7445 26.6681 43.7982 24.6696 42.2777 23.1507C41.4166 22.2859 40.3924 21.6002 39.2643 21.1334C38.1362 20.6667 36.9266 20.4281 35.7056 20.4314ZM38.3002 32.3074C37.6111 32.9905 36.6792 33.373 35.7084 33.3712C34.7376 33.3694 33.807 32.9833 33.1206 32.2976C32.4341 31.6119 32.0477 30.6824 32.0458 29.7127C32.044 28.743 32.427 27.8121 33.1109 27.1238C33.4511 26.7813 33.8558 26.5094 34.3015 26.3235C34.7472 26.1376 35.2253 26.0414 35.7084 26.0405C36.1914 26.0396 36.6699 26.134 37.1163 26.3182C37.5628 26.5025 37.9684 26.7729 38.3099 27.1141C38.6515 27.4553 38.9222 27.8605 39.1067 28.3064C39.2911 28.7524 39.3856 29.2303 39.3846 29.7128C39.3837 30.1953 39.2874 30.6729 39.1013 31.1181C38.9152 31.5634 38.6429 31.9676 38.3001 32.3074L38.3002 32.3074ZM41.1978 0.822812C41.4589 1.08369 41.6661 1.39339 41.8074 1.73424C41.9488 2.07509 42.0215 2.44042 42.0215 2.80935C42.0215 3.17828 41.9488 3.54361 41.8074 3.88446C41.6661 4.22531 41.4589 4.53501 41.1978 4.79589L7.77984 38.1769C7.2517 38.7004 6.5374 38.9935 5.79335 38.9921C5.0493 38.9906 4.33614 38.6947 3.81003 38.1692C3.28391 37.6436 2.98772 36.9313 2.98629 36.188C2.98487 35.4448 3.27834 34.7313 3.80245 34.2038L37.2203 0.822812C37.7478 0.295973 38.4631 0 39.209 0C39.955 0 40.6703 0.295973 41.1978 0.822812Z" fill="#C2A75A"/>
</svg>
