<svg width="45" height="43" viewBox="0 0 45 43" fill="none" xmlns="http://www.w3.org/2000/svg">
<path d="M12.5581 14.1279C12.5581 13.2609 13.2609 12.5581 14.1279 12.5581H22.5C23.3669 12.5581 24.0697 13.2609 24.0697 14.1279C24.0697 14.9948 23.3669 15.6976 22.5 15.6976H14.1279C13.2609 15.6976 12.5581 14.9948 12.5581 14.1279Z" fill="#C2A75A"/>
<path d="M12.5581 22.4999C12.5581 21.633 13.2609 20.9302 14.1279 20.9302H30.872C31.739 20.9302 32.4418 21.633 32.4418 22.4999C32.4418 23.3669 31.739 24.0697 30.872 24.0697H14.1279C13.2609 24.0697 12.5581 23.3669 12.5581 22.4999Z" fill="#C2A75A"/>
<path fill-rule="evenodd" clip-rule="evenodd" d="M18.2437 0H26.7564C29.6274 0 31.8782 -2.08339e-05 33.6874 0.147788C35.5295 0.298298 37.0513 0.609865 38.4287 1.31172C40.6934 2.46554 42.5344 4.30664 43.6883 6.57115C44.3901 7.94865 44.7017 9.47049 44.8522 11.3127C45 13.1217 45 15.3726 45 18.2437V20.7925V21.1C45.0004 24.3412 45.0008 26.3185 44.5138 27.9793C43.3605 31.9125 40.2846 34.9884 36.3514 36.1417C34.6906 36.6287 32.7133 36.6283 29.4721 36.6279C29.3708 36.6279 29.2684 36.6279 29.1646 36.6279H28.0159L27.8897 36.6281C26.0747 36.6396 24.3067 37.2064 22.8229 38.2519L22.72 38.3251L17.2557 42.2282C14.1068 44.4773 9.96881 41.2292 11.406 37.6361C11.5992 37.1532 11.2435 36.6279 10.7234 36.6279H9.46393C4.23713 36.6279 0 32.3908 0 27.1639V18.2437C0 15.3727 -2.08339e-05 13.1218 0.147788 11.3127C0.298298 9.47049 0.609865 7.94865 1.31172 6.57115C2.46554 4.30664 4.30664 2.46554 6.57115 1.31172C7.94865 0.609865 9.47049 0.298298 11.3127 0.147788C13.1218 -2.08339e-05 15.3727 0 18.2437 0ZM11.5683 3.2769C9.9203 3.41154 8.85761 3.6703 7.99647 4.10906C6.32271 4.96189 4.96189 6.32271 4.10906 7.99647C3.6703 8.85761 3.41154 9.9203 3.2769 11.5683C3.14075 13.2346 3.13953 15.3575 3.13953 18.3139V27.1639C3.13953 30.6569 5.97106 33.4884 9.46393 33.4884H10.7234C13.4646 33.4884 15.3391 36.257 14.321 38.8021C14.0483 39.4838 14.8334 40.1002 15.4309 39.6734L21.0144 35.6854C23.0218 34.2709 25.4139 33.5043 27.8696 33.4886L28.0159 33.4884H29.1646C32.8104 33.4884 34.2969 33.4724 35.4679 33.129C38.3751 32.2765 40.6486 30.0031 41.5011 27.0958C41.8445 25.9248 41.8604 24.4383 41.8604 20.7925V18.3139C41.8604 15.3575 41.8592 13.2346 41.7231 11.5683C41.5884 9.9203 41.3297 8.85761 40.891 7.99647C40.038 6.32271 38.6772 4.96189 37.0036 4.10906C36.1423 3.6703 35.0797 3.41154 33.4316 3.2769C31.7654 3.14075 29.6424 3.13953 26.686 3.13953H18.3139C15.3575 3.13953 13.2346 3.14075 11.5683 3.2769Z" fill="#C2A75A"/>
</svg>
