<svg width="42" height="43" viewBox="0 0 42 43" fill="none" xmlns="http://www.w3.org/2000/svg">
<path d="M0.000677944 41.6619C0.0086525 41.843 0.0862375 42.014 0.217245 42.1392C0.348252 42.2645 0.522561 42.3343 0.703803 42.3341C33.4258 42.3341 36.5857 17.1306 36.8873 12.5631H40.4381C40.5687 12.5631 40.6967 12.5267 40.8078 12.4581C40.9188 12.3894 41.0086 12.2912 41.067 12.1744C41.1254 12.0576 41.1501 11.9269 41.1384 11.7968C41.1267 11.6668 41.0789 11.5425 41.0006 11.4381L32.5076 0.262603C32.4393 0.180428 32.3537 0.114299 32.257 0.0689137C32.1603 0.0235283 32.0547 0 31.9479 0C31.841 0 31.7355 0.0235283 31.6388 0.0689137C31.542 0.114299 31.4565 0.180428 31.3882 0.262603L22.8986 11.4346C22.8203 11.539 22.7726 11.6632 22.7609 11.7933C22.7491 11.9233 22.7739 12.0541 22.8323 12.1709C22.8906 12.2877 22.9804 12.3859 23.0915 12.4545C23.2026 12.5232 23.3306 12.5596 23.4611 12.5596H26.9768C26.5296 38.3424 1.70716 40.8364 0.641225 40.9307C0.460833 40.9466 0.293548 41.0315 0.174222 41.1677C0.0548962 41.304 -0.00726901 41.481 0.000677944 41.6619Z" fill="#C2A75A"/>
</svg>
