<svg width="28" height="28" viewBox="0 0 28 28" fill="none" xmlns="http://www.w3.org/2000/svg">
<path fill-rule="evenodd" clip-rule="evenodd" d="M14 28C6.26924 28 0 21.7308 0 14C0 6.26924 6.26924 0 14 0C21.7308 0 28 6.26924 28 14C28 21.7308 21.7308 28 14 28ZM14 4.89383C17.8298 4.89383 20.9344 7.99841 20.9344 11.8282C20.9344 15.658 14 23.1061 14 23.1061C14 23.1061 7.06559 15.658 7.06559 11.8282C7.06559 7.99841 10.1702 4.89383 14 4.89383ZM14 9.0731C15.452 9.0731 16.6296 10.2506 16.6296 11.7028C16.6296 13.1548 15.452 14.3324 14 14.3324C12.548 14.3324 11.3704 13.1548 11.3704 11.7028C11.3704 10.2506 12.548 9.0731 14 9.0731Z" fill="#FEDD93"/>
</svg>
