<svg width="46" height="49" viewBox="0 0 46 49" fill="none" xmlns="http://www.w3.org/2000/svg">
<path d="M24.9442 7.7945V1.99998L36.4255 13.589H30.6849C26.6536 13.589 24.9442 11.8635 24.9442 7.7945ZM38.1095 25.0751L22.8775 40.5529C22.1596 41.2766 21.7558 42.2585 21.7549 43.2827V45.6521C21.7549 45.7535 21.7351 45.854 21.6966 45.9477C21.6582 46.0414 21.6018 46.1266 21.5307 46.1984C21.4596 46.2701 21.3752 46.327 21.2824 46.3658C21.1895 46.4047 21.09 46.4247 20.9895 46.4247H7.72209C6.68238 46.5744 5.62241 46.4778 4.62609 46.1425C3.62977 45.8071 2.72446 45.2423 1.98182 44.4927C1.23919 43.7431 0.67962 42.8293 0.347416 41.8237C0.0152124 40.818 -0.0805059 39.7481 0.0678382 38.6986V7.7945C-0.0805059 6.74504 0.0152124 5.67513 0.347416 4.66947C0.67962 3.6638 1.23919 2.75 1.98182 2.00041C2.72446 1.25081 3.62977 0.685993 4.62609 0.350674C5.62241 0.0153551 6.68238 -0.0812608 7.72209 0.0684744H21.117V7.7945C20.9662 9.09953 21.1099 10.4221 21.5374 11.6631C21.9649 12.9041 22.6651 14.0314 23.5855 14.9604C24.5059 15.8895 25.6227 16.5962 26.8522 17.0277C28.0817 17.4592 29.3919 17.6043 30.6849 17.452H38.3391V24.5342C38.342 24.6358 38.3229 24.7368 38.2833 24.8302C38.2436 24.9236 38.1843 25.0071 38.1095 25.0751ZM12.1871 33.5479C12.1871 33.1659 12.0748 32.7925 11.8646 32.4748C11.6543 32.1572 11.3555 31.9096 11.0058 31.7635C10.6561 31.6173 10.2714 31.579 9.90019 31.6535C9.529 31.7281 9.18803 31.912 8.92041 32.1822C8.6528 32.4523 8.47055 32.7964 8.39671 33.1711C8.32288 33.5458 8.36077 33.9342 8.50561 34.2871C8.65044 34.64 8.89571 34.9417 9.21039 35.1539C9.52507 35.3662 9.89504 35.4794 10.2735 35.4794C10.781 35.4794 11.2677 35.2759 11.6266 34.9137C11.9855 34.5515 12.1871 34.0602 12.1871 33.5479ZM12.1871 23.2466C12.1871 22.8645 12.0748 22.4911 11.8646 22.1735C11.6543 21.8558 11.3555 21.6083 11.0058 21.4621C10.6561 21.3159 10.2714 21.2776 9.90019 21.3522C9.529 21.4267 9.18803 21.6107 8.92041 21.8808C8.6528 22.1509 8.47055 22.4951 8.39671 22.8697C8.32288 23.2444 8.36077 23.6328 8.50561 23.9857C8.65044 24.3387 8.89571 24.6403 9.21039 24.8526C9.52507 25.0648 9.89504 25.1781 10.2735 25.1781C10.781 25.1781 11.2677 24.9746 11.6266 24.6123C11.9855 24.2501 12.1871 23.7588 12.1871 23.2466ZM22.3927 33.5479C22.3927 33.0357 22.1911 32.5444 21.8323 32.1822C21.4734 31.8199 20.9867 31.6164 20.4792 31.6164H16.6521C16.1445 31.6164 15.6578 31.8199 15.299 32.1822C14.9401 32.5444 14.7385 33.0357 14.7385 33.5479C14.7385 34.0602 14.9401 34.5515 15.299 34.9137C15.6578 35.2759 16.1445 35.4794 16.6521 35.4794H20.4792C20.9867 35.4794 21.4734 35.2759 21.8323 34.9137C22.1911 34.5515 22.3927 34.0602 22.3927 33.5479ZM30.047 23.2466C30.047 22.7343 29.8454 22.243 29.4865 21.8808C29.1277 21.5186 28.6409 21.3151 28.1334 21.3151H16.6521C16.1445 21.3151 15.6578 21.5186 15.299 21.8808C14.9401 22.243 14.7385 22.7343 14.7385 23.2466C14.7385 23.7588 14.9401 24.2501 15.299 24.6123C15.6578 24.9746 16.1445 25.1781 16.6521 25.1781H28.1334C28.6409 25.1781 29.1277 24.9746 29.4865 24.6123C29.8454 24.2501 30.047 23.7588 30.047 23.2466ZM25.582 43.2827V49H31.2462L41.4518 38.7501L35.7367 32.9814L25.582 43.2827ZM45.33 31.6164L42.8041 29.0668C42.5937 28.8526 42.3433 28.6825 42.0674 28.5664C41.7915 28.4503 41.4956 28.3905 41.1967 28.3905C40.8978 28.3905 40.6019 28.4503 40.326 28.5664C40.0501 28.6825 39.7997 28.8526 39.5893 29.0668L37.5226 31.1786L43.2378 36.9474L45.33 34.8614C45.5423 34.649 45.7108 34.3963 45.8258 34.1178C45.9408 33.8393 46 33.5406 46 33.2389C46 32.9372 45.9408 32.6385 45.8258 32.36C45.7108 32.0815 45.5423 31.8288 45.33 31.6164Z" fill="#C2A75A"/>
</svg>
