<svg width="44" height="44" viewBox="0 0 44 44" fill="none" xmlns="http://www.w3.org/2000/svg">
<path d="M28.5 0H5.5C2.46 0 0 2.46 0 5.5V36.5C0 39.54 2.46 42 5.5 42H21.78C20.02 39.6 19 36.68 19 33.5C19 25.5 25.5 19 33.5 19C33.66 19 33.84 19 34 19.02V5.5C34 2.46 31.54 0 28.5 0ZM8 8H16C17.1 8 18 8.9 18 10C18 11.1 17.1 12 16 12H8C6.9 12 6 11.1 6 10C6 8.9 6.9 8 8 8ZM18 28H8C6.9 28 6 27.1 6 26C6 24.9 6.9 24 8 24H18C19.1 24 20 24.9 20 26C20 27.1 19.1 28 18 28ZM26 20H8C6.9 20 6 19.1 6 18C6 16.9 6.9 16 8 16H26C27.1 16 28 16.9 28 18C28 19.1 27.1 20 26 20Z" fill="#C2A75A"/>
<path d="M33.5 44C27.71 44 23 39.29 23 33.5C23 27.71 27.71 23 33.5 23C39.29 23 44 27.71 44 33.5C44 39.29 39.29 44 33.5 44ZM33.5 27C29.916 27 27 29.916 27 33.5C27 37.084 29.916 40 33.5 40C37.084 40 40 37.084 40 33.5C40 29.916 37.084 27 33.5 27Z" fill="#C2A75A"/>
</svg>
