<svg width="45" height="48" viewBox="0 0 45 48" fill="none" xmlns="http://www.w3.org/2000/svg">
<path d="M44.2791 8.94686C44.2499 8.80751 44.1863 8.67744 44.0938 8.56825C44.0014 8.45906 43.8829 8.37414 43.7492 8.32106L22.8214 0.0578763C22.6143 -0.0192921 22.3857 -0.0192921 22.1786 0.0578763L1.25084 8.32106C1.11704 8.37414 0.998644 8.45906 0.906186 8.56825C0.813728 8.67744 0.750087 8.80751 0.720934 8.94686C-2.75398 25.019 6.62831 41.9312 22.5 48C38.3717 41.9397 47.754 25.019 44.2791 8.94686ZM22.5 43.7141C9.46035 38.8024 1.75478 24.8818 4.59549 11.6984C4.62594 11.5595 4.69006 11.4301 4.78235 11.3211C4.87465 11.2121 4.99236 11.1269 5.12539 11.0726L22.1786 4.34382C22.3857 4.26665 22.6143 4.26665 22.8214 4.34382L39.8746 11.0727C40.0077 11.1269 40.1254 11.2122 40.2177 11.3212C40.31 11.4301 40.3741 11.5596 40.4045 11.6984C43.2452 24.8818 35.5397 38.8024 22.5 43.7141ZM38.7887 12.4955C41.2125 24.1961 34.3061 37.0624 22.5 41.914C10.7461 36.9681 3.83964 24.599 6.2113 12.4955C6.2113 12.4955 22.1786 6.1953 22.4913 6.06671C22.5174 6.06668 38.4499 12.367 38.7887 12.4955Z" fill="#C2A75A"/>
<path d="M34.9999 23.4256C34.7313 23.6128 34.3771 23.7472 33.9375 23.8286C33.4979 23.9181 33.0461 23.9629 32.5821 23.9629C32.0366 23.9629 31.5115 23.8815 31.0068 23.7187C30.5102 23.5559 30.0665 23.2953 29.6757 22.9371C29.2931 22.5789 28.9878 22.119 28.7599 21.5573C28.5319 20.9955 28.418 20.3158 28.418 19.518C28.418 18.6876 28.5482 17.9915 28.8087 17.4298C29.0692 16.8599 29.403 16.404 29.8101 16.0621C30.2171 15.7121 30.6689 15.4597 31.1655 15.305C31.6621 15.1503 32.1506 15.073 32.6309 15.073C33.1601 15.073 33.6037 15.1056 33.9619 15.1707C34.3283 15.2358 34.6295 15.3132 34.8656 15.4027L34.5115 16.9169C34.3079 16.8274 34.0678 16.7622 33.791 16.7215C33.5223 16.6808 33.1804 16.6605 32.7652 16.6605C32.3989 16.6605 32.0651 16.7215 31.7639 16.8437C31.4708 16.9576 31.2185 17.1327 31.0068 17.3687C30.7951 17.6048 30.6282 17.902 30.5061 18.2602C30.3921 18.6184 30.3352 19.0376 30.3352 19.518C30.3352 19.9413 30.3881 20.328 30.4939 20.678C30.5997 21.0281 30.7585 21.3293 30.9702 21.5817C31.1818 21.834 31.4505 22.0294 31.7761 22.1678C32.1017 22.3062 32.4803 22.3754 32.9118 22.3754C33.3107 22.3754 33.6445 22.3388 33.9131 22.2655C34.1899 22.1923 34.4341 22.0986 34.6458 21.9847L34.9999 23.4256Z" fill="white"/>
<path d="M25.3278 20.263H21.9086V23.7921H20.1013V15.2441H21.9086V18.6755H25.3278V15.2441H27.1351V23.7921H25.3278V20.263Z" fill="white"/>
<path d="M13.0908 22.8641C12.9199 22.8886 12.7489 22.9049 12.5779 22.913C12.407 22.9211 12.2197 22.9252 12.0162 22.9252C11.601 22.9252 11.2103 22.856 10.8439 22.7176C10.4776 22.5792 10.156 22.3676 9.87922 22.0826C9.61057 21.7977 9.39484 21.4436 9.23202 21.0202C9.07734 20.5969 9 20.0962 9 19.5182C9 18.9728 9.07734 18.4803 9.23202 18.0406C9.39484 17.601 9.61871 17.2306 9.90364 16.9294C10.1886 16.62 10.5305 16.384 10.9294 16.2211C11.3364 16.0583 11.7801 15.9769 12.2604 15.9769C12.3744 15.9769 12.5128 15.981 12.6756 15.9891C12.8466 15.9973 12.985 16.0135 13.0908 16.038V15H14.8859V16.0746C15.0487 16.0339 15.236 16.0095 15.4476 16.0013C15.6593 15.9851 15.8343 15.9769 15.9727 15.9769C16.396 15.9769 16.7909 16.0502 17.1572 16.1967C17.5236 16.3433 17.8411 16.5631 18.1097 16.8561C18.3784 17.1411 18.59 17.4952 18.7447 17.9185C18.8994 18.3419 18.9767 18.8344 18.9767 19.3961C18.9767 19.966 18.8912 20.4707 18.7203 20.9103C18.5493 21.3499 18.3173 21.7203 18.0242 22.0216C17.7312 22.3146 17.3892 22.5385 16.9985 22.6932C16.6158 22.8479 16.2088 22.9252 15.7773 22.9252C15.6308 22.9252 15.472 22.9211 15.3011 22.913C15.1383 22.8967 14.9999 22.8723 14.8859 22.8397V24.0364H13.0908V22.8641ZM15.5453 17.4056C15.4558 17.4056 15.3337 17.4097 15.179 17.4179C15.0324 17.426 14.9103 17.4423 14.8126 17.4667V21.472C14.8859 21.4883 14.9755 21.4965 15.0813 21.4965C15.1871 21.4965 15.297 21.4965 15.411 21.4965C15.6471 21.4965 15.871 21.4558 16.0826 21.3744C16.2943 21.2929 16.4775 21.1708 16.6321 21.008C16.795 20.8371 16.9211 20.6213 17.0107 20.3608C17.1002 20.0922 17.145 19.7747 17.145 19.4083C17.145 18.7733 16.9985 18.2808 16.7054 17.9307C16.4205 17.5807 16.0338 17.4056 15.5453 17.4056ZM12.4803 21.4965C12.5535 21.4965 12.6594 21.4965 12.7977 21.4965C12.9361 21.4883 13.0583 21.468 13.1641 21.4354V17.4423C12.9768 17.4179 12.7693 17.4056 12.5413 17.4056C12.3052 17.4056 12.0813 17.4464 11.8697 17.5278C11.6662 17.6092 11.4871 17.7354 11.3324 17.9063C11.1777 18.0773 11.0556 18.2971 10.966 18.5657C10.8765 18.8262 10.8317 19.1397 10.8317 19.506C10.8317 20.1491 10.9823 20.6417 11.2835 20.9836C11.5929 21.3255 11.9918 21.4965 12.4803 21.4965Z" fill="white"/>
</svg>
