<svg width="50" height="42" viewBox="0 0 50 42" fill="none" xmlns="http://www.w3.org/2000/svg">
<path d="M45.8333 6.30008H35.4167V4.20002C35.4167 1.88369 33.548 0 31.25 0H18.75C16.4521 0 14.5833 1.8836 14.5833 4.20002V6.29998H4.1667C1.86865 6.30008 0 8.18367 0 10.5V16.8C0 19.1164 1.86865 21 4.1667 21H20.8334V19.95C20.8334 19.3696 21.2993 18.8999 21.8751 18.8999H28.1251C28.7009 18.8999 29.1668 19.3696 29.1668 19.95V21H45.8335C48.1313 21 50 19.1164 50 16.8V10.5C50 8.18367 48.1313 6.30008 45.8333 6.30008ZM31.25 6.30008H18.75V4.20002H31.25V6.30008Z" fill="#C2A75A"/>
<path d="M49.4221 22.111C49.0671 21.9334 48.6429 21.9745 48.3295 22.2147C47.589 22.7803 46.7263 23.079 45.8331 23.079H29.1666V26.2325C29.1666 26.8135 28.7007 27.2837 28.1249 27.2837H21.875C21.2992 27.2837 20.8333 26.8135 20.8333 26.2325V23.079H4.16669C3.27353 23.079 2.41093 22.7803 1.67031 22.2147C1.35595 21.9725 0.932811 21.9314 0.577733 22.111C0.223828 22.2887 0 22.653 0 23.0524V37.7953C0 40.1142 1.86865 42 4.16669 42H45.8333C48.1313 42 50 40.1143 50 37.7953V23.0524C49.9999 22.653 49.7761 22.2887 49.4221 22.111Z" fill="#C2A75A"/>
</svg>
