<svg width="29" height="28" viewBox="0 0 29 28" fill="none" xmlns="http://www.w3.org/2000/svg">
<path d="M28.0921 10.222C27.9077 9.65048 27.4018 9.24453 26.8034 9.19048L18.674 8.45072L15.4595 0.910326C15.2225 0.357713 14.6826 0 14.0829 0C13.4831 0 12.9433 0.357712 12.7063 0.911618L9.49174 8.45072L1.36112 9.19048C0.763719 9.24582 0.259155 9.65048 0.0737041 10.222C-0.111747 10.7936 0.0595213 11.4205 0.511437 11.8157L6.65625 17.2165L4.84429 25.2156C4.7117 25.8038 4.93948 26.4117 5.42643 26.7645C5.68816 26.954 5.99438 27.0505 6.30318 27.0505C6.56943 27.0505 6.83353 26.9785 7.07056 26.8364L14.0829 22.6362L21.0926 26.8364C21.6056 27.1457 22.2522 27.1174 22.7381 26.7645C23.2252 26.4106 23.4528 25.8025 23.3202 25.2156L21.5082 17.2165L27.653 11.8168C28.105 11.4205 28.2775 10.7947 28.0921 10.222Z" fill="#C2A75A"/>
</svg>
