<svg width="17" height="16" viewBox="0 0 17 16" fill="none" xmlns="http://www.w3.org/2000/svg">
<path fill-rule="evenodd" clip-rule="evenodd" d="M9.57391 0.345775L10.6536 1.11572C10.9489 1.32629 11.2597 1.43406 11.628 1.45359L12.9746 1.52495C13.781 1.56767 14.4358 2.09114 14.62 2.84024L14.9276 4.09121C15.0118 4.43333 15.1772 4.70622 15.4461 4.94669L16.4295 5.82598C17.0184 6.35246 17.1668 7.15449 16.8025 7.8411L16.1941 8.98775C16.0277 9.30136 15.9702 9.61167 16.014 9.96058L16.1741 11.2363C16.2699 12.0003 15.8425 12.7055 15.1002 13.0084L13.8604 13.5142C13.5213 13.6526 13.2679 13.8551 13.066 14.1492L12.3278 15.2245C11.8858 15.8683 11.0825 16.1469 10.3095 15.9243L9.0185 15.5526C8.66543 15.451 8.33467 15.451 7.98157 15.5526L6.69056 15.9243C5.91755 16.1469 5.11423 15.8683 4.67223 15.2245L3.93404 14.1492C3.73212 13.8551 3.47875 13.6526 3.13971 13.5142L1.89984 13.0083C1.1575 12.7055 0.730059 12.0002 0.825897 11.2363L0.98598 9.96051C1.02976 9.6116 0.97231 9.3013 0.805922 8.98768L0.197497 7.84103C-0.1668 7.15446 -0.0183679 6.35243 0.570471 5.82592L1.55389 4.94662C1.82284 4.70616 1.9882 4.43327 2.07232 4.09114L2.37995 2.84017C2.56412 2.09111 3.21901 1.56763 4.02534 1.52488L5.37192 1.45352C5.74022 1.43402 6.05104 1.32622 6.34634 1.11565L7.42606 0.345708C8.07252 -0.115247 8.92741 -0.115247 9.57391 0.345775ZM7.81121 8.44063L6.63949 7.32437C6.33579 7.03505 5.84318 7.03505 5.53951 7.32437C5.23581 7.61369 5.23581 8.08295 5.53951 8.37227L7.26293 10.0141C7.56663 10.3033 8.05924 10.3034 8.3629 10.0141C9.40168 9.02443 10.4287 8.0237 11.4627 7.02955C11.7642 6.73966 11.7632 6.27189 11.4593 5.98399C11.1554 5.69602 10.6629 5.69683 10.3611 5.98723L7.81121 8.44063ZM8.49996 2.48195C6.90051 2.48195 5.45242 3.09959 4.40423 4.09816C3.35603 5.09676 2.7077 6.47625 2.7077 7.99998C2.7077 9.52371 3.35603 10.9032 4.40423 11.9018C5.45242 12.9004 6.90051 13.518 8.49996 13.518C10.0994 13.518 11.5475 12.9004 12.5957 11.9018C13.6439 10.9032 14.2922 9.52371 14.2922 7.99998C14.2922 6.47625 13.6439 5.09673 12.5957 4.09816C11.5475 3.09959 10.0994 2.48195 8.49996 2.48195ZM12.195 4.47986C11.2494 3.57901 9.94298 3.02179 8.49996 3.02179C7.05694 3.02179 5.75053 3.57901 4.8049 4.47986C3.85927 5.38072 3.27436 6.62528 3.27436 7.99998C3.27436 9.37468 3.85927 10.6192 4.8049 11.5201C5.75053 12.421 7.05694 12.9782 8.49996 12.9782C9.94298 12.9782 11.2494 12.421 12.195 11.5201C13.1407 10.6193 13.7255 9.37471 13.7255 8.00002C13.7256 6.62528 13.1407 5.38072 12.195 4.47986Z" fill="#C2A75A"/>
</svg>
